# xmcd
#
# Track frame offsets:
#	150
#	15687
#	39322
#	57912
#
# Disc length: 1064 seconds
#
# Revision: 1
# Processed by: cddbd v1.4PL0 Copyright (c) Steve Scherf et al.
# Submitted via: audiograbber 1.82.00
#
DISCID=28042604
DTITLE=Sheryl Crow - Soak Up The Sun [CD Single)
DYEAR=2002
DGENRE=Folk-Rock
TTITLE0=Soak Up The Sun (Radio Edit)
TTITLE1=Changes Are
TTITLE2=You´re Not The One
TTITLE3=Soak Up The Sun (Album Version)
EXTD=
EXTT0=
EXTT1=
EXTT2=
EXTT3=
PLAYORDER=
